<mxGraphModel dx="0" dy="0" grid="1" gridSize="10" guides="1" tooltips="1" connect="1" arrows="1" fold="1" page="0" pageScale="1" background="none" math="0" shadow="0">
  <root>
    <mxCell id="0" />
    <mxCell id="1" parent="0" />
    <mxCell id="node5" parent="1" vertex="1" value="&lt;p style=&quot;margin:0px;margin-top:4px;text-align:center;&quot;&gt;&lt;b&gt;Exercise1LearnHowTo&lt;/b&gt;&lt;/p&gt;&lt;hr size=&quot;1&quot;/&gt;&lt;p style=&quot;margin:0 0 0 4px;line-height:1.6;&quot;&gt;+ Exercise1LearnHowTo(): &lt;/p&gt;" style="verticalAlign=top;align=left;overflow=fill;fontSize=14;fontFamily=Helvetica;html=1;rounded=0;shadow=0;comic=0;labelBackgroundColor=none;strokeWidth=1;">
      <mxGeometry x="470" y="243" width="194" height="58" as="geometry" />
    </mxCell>
    <mxCell id="node7" parent="1" vertex="1" value="&lt;p style=&quot;margin:0px;margin-top:4px;text-align:center;&quot;&gt;&lt;b&gt;Exercise2HumanInterest&lt;/b&gt;&lt;/p&gt;&lt;hr size=&quot;1&quot;/&gt;&lt;p style=&quot;margin:0 0 0 4px;line-height:1.6;&quot;&gt;+ Exercise2HumanInterest(): &lt;/p&gt;" style="verticalAlign=top;align=left;overflow=fill;fontSize=14;fontFamily=Helvetica;html=1;rounded=0;shadow=0;comic=0;labelBackgroundColor=none;strokeWidth=1;">
      <mxGeometry x="982" y="177" width="207" height="58" as="geometry" />
    </mxCell>
    <mxCell id="node2" parent="1" vertex="1" value="&lt;p style=&quot;margin:0px;margin-top:4px;text-align:center;&quot;&gt;&lt;b&gt;Exercise3ListenAndRepeat&lt;/b&gt;&lt;/p&gt;&lt;hr size=&quot;1&quot;/&gt;&lt;p style=&quot;margin:0 0 0 4px;line-height:1.6;&quot;&gt;+ Exercise3ListenAndRepeat(): &lt;/p&gt;" style="verticalAlign=top;align=left;overflow=fill;fontSize=14;fontFamily=Helvetica;html=1;rounded=0;shadow=0;comic=0;labelBackgroundColor=none;strokeWidth=1;">
      <mxGeometry x="78" y="103" width="220" height="58" as="geometry" />
    </mxCell>
    <mxCell id="node6" parent="1" vertex="1" value="&lt;p style=&quot;margin:0px;margin-top:4px;text-align:center;&quot;&gt;&lt;b&gt;Exercise4Test&lt;/b&gt;&lt;/p&gt;&lt;hr size=&quot;1&quot;/&gt;&lt;p style=&quot;margin:0 0 0 4px;line-height:1.6;&quot;&gt;+ Exercise4Test(): &lt;/p&gt;&lt;hr size=&quot;1&quot;/&gt;&lt;p style=&quot;margin:0 0 0 4px;line-height:1.6;&quot;&gt;- listOfQuestions: List&amp;lt;Question&amp;gt;&lt;/p&gt;" style="verticalAlign=top;align=left;overflow=fill;fontSize=14;fontFamily=Helvetica;html=1;rounded=0;shadow=0;comic=0;labelBackgroundColor=none;strokeWidth=1;">
      <mxGeometry x="765" y="24" width="217" height="83" as="geometry" />
    </mxCell>
    <mxCell id="node8" parent="1" vertex="1" value="&lt;p style=&quot;margin:0px;margin-top:4px;text-align:center;&quot;&gt;&lt;b&gt;Exercises&lt;/b&gt;&lt;/p&gt;&lt;hr size=&quot;1&quot;/&gt;&lt;p style=&quot;margin:0 0 0 4px;line-height:1.6;&quot;&gt;+ Exercises(): &lt;/p&gt;&lt;hr size=&quot;1&quot;/&gt;&lt;p style=&quot;margin:0 0 0 4px;line-height:1.6;&quot;&gt;~ exerciseTitle: String&lt;br/&gt;~ dateTimeWhenExerciseWasDone: LocalDateTime&lt;br/&gt;~ videoFileName: String&lt;br/&gt;~ exerciseText: String&lt;br/&gt;~ listOfQuestions: List&amp;lt;Question&amp;gt;&lt;br/&gt;~ testResult: int&lt;br/&gt;~ dateTimeWhenExerciseWasCreated: LocalDateTime&lt;/p&gt;" style="verticalAlign=top;align=left;overflow=fill;fontSize=14;fontFamily=Helvetica;html=1;rounded=0;shadow=0;comic=0;labelBackgroundColor=none;strokeWidth=1;">
      <mxGeometry x="382" y="-49" width="313" height="209" as="geometry" />
    </mxCell>
    <mxCell id="node9" parent="1" vertex="1" value="&lt;p style=&quot;margin:0px;margin-top:4px;text-align:center;&quot;&gt;&lt;b&gt;Lesson&lt;/b&gt;&lt;/p&gt;&lt;hr size=&quot;1&quot;/&gt;&lt;p style=&quot;margin:0 0 0 4px;line-height:1.6;&quot;&gt;+ Lesson(): &lt;/p&gt;&lt;hr size=&quot;1&quot;/&gt;&lt;p style=&quot;margin:0 0 0 4px;line-height:1.6;&quot;&gt;- dateTimeWhenLessonWasDone: LocalDateTime&lt;br/&gt;- lessonCategory: String&lt;br/&gt;- lessonName: String&lt;br/&gt;- dateTimeWhenLessonWasCreated: LocalDateTime&lt;br/&gt;- exercisesList: List&amp;lt;Exercises&amp;gt;&lt;/p&gt;" style="verticalAlign=top;align=left;overflow=fill;fontSize=14;fontFamily=Helvetica;html=1;rounded=0;shadow=0;comic=0;labelBackgroundColor=none;strokeWidth=1;">
      <mxGeometry x="552" y="373" width="308" height="165" as="geometry" />
    </mxCell>
    <mxCell id="node10" parent="1" vertex="1" value="&lt;p style=&quot;margin:0px;margin-top:4px;text-align:center;&quot;&gt;&lt;b&gt;Question&lt;/b&gt;&lt;/p&gt;&lt;hr size=&quot;1&quot;/&gt;&lt;p style=&quot;margin:0 0 0 4px;line-height:1.6;&quot;&gt;+ Question(): &lt;/p&gt;&lt;hr size=&quot;1&quot;/&gt;&lt;p style=&quot;margin:0 0 0 4px;line-height:1.6;&quot;&gt;- wordsToChooseFrom: List&amp;lt;Word&amp;gt;&lt;br/&gt;- correctAnswer: Word&lt;/p&gt;" style="verticalAlign=top;align=left;overflow=fill;fontSize=14;fontFamily=Helvetica;html=1;rounded=0;shadow=0;comic=0;labelBackgroundColor=none;strokeWidth=1;">
      <mxGeometry x="893" y="382" width="231" height="107" as="geometry" />
    </mxCell>
    <mxCell id="node4" parent="1" vertex="1" value="&lt;p style=&quot;margin:0px;margin-top:4px;text-align:center;&quot;&gt;&lt;b&gt;Specialist&lt;/b&gt;&lt;/p&gt;&lt;hr size=&quot;1&quot;/&gt;&lt;p style=&quot;margin:0 0 0 4px;line-height:1.6;&quot;&gt;+ Specialist(String, String): &lt;/p&gt;&lt;hr size=&quot;1&quot;/&gt;&lt;p style=&quot;margin:0 0 0 4px;line-height:1.6;&quot;&gt;- listOfLessonsCreated: List&amp;lt;Lesson&amp;gt;&lt;br/&gt;- listOfExercisesCreated: List&amp;lt;Exercises&amp;gt;&lt;/p&gt;" style="verticalAlign=top;align=left;overflow=fill;fontSize=14;fontFamily=Helvetica;html=1;rounded=0;shadow=0;comic=0;labelBackgroundColor=none;strokeWidth=1;">
      <mxGeometry x="244" y="382" width="248" height="107" as="geometry" />
    </mxCell>
    <mxCell id="node3" parent="1" vertex="1" value="&lt;p style=&quot;margin:0px;margin-top:4px;text-align:center;&quot;&gt;&lt;b&gt;Student&lt;/b&gt;&lt;/p&gt;&lt;hr size=&quot;1&quot;/&gt;&lt;p style=&quot;margin:0 0 0 4px;line-height:1.6;&quot;&gt;+ Student(String, String): &lt;/p&gt;&lt;hr size=&quot;1&quot;/&gt;&lt;p style=&quot;margin:0 0 0 4px;line-height:1.6;&quot;&gt;- musicInstrumentPlayed: String&lt;br/&gt;- age: int&lt;br/&gt;- howLongHaveYouBeenLearningEnglish: String&lt;br/&gt;- daysWithoutBreak: int&lt;br/&gt;- gender: String&lt;br/&gt;- listOfLessonsDone: List&amp;lt;Lesson&amp;gt;&lt;br/&gt;- listOfTestsDone: List&amp;lt;Exercises&amp;gt;&lt;/p&gt;" style="verticalAlign=top;align=left;overflow=fill;fontSize=14;fontFamily=Helvetica;html=1;rounded=0;shadow=0;comic=0;labelBackgroundColor=none;strokeWidth=1;">
      <mxGeometry x="-115" y="232" width="289" height="209" as="geometry" />
    </mxCell>
    <mxCell id="node1" parent="1" vertex="1" value="&lt;p style=&quot;margin:0px;margin-top:4px;text-align:center;&quot;&gt;&lt;b&gt;User&lt;/b&gt;&lt;/p&gt;&lt;hr size=&quot;1&quot;/&gt;&lt;p style=&quot;margin:0 0 0 4px;line-height:1.6;&quot;&gt;+ User(String, String): &lt;/p&gt;&lt;hr size=&quot;1&quot;/&gt;&lt;p style=&quot;margin:0 0 0 4px;line-height:1.6;&quot;&gt;- password: String&lt;br/&gt;- emailAddress: String&lt;/p&gt;" style="verticalAlign=top;align=left;overflow=fill;fontSize=14;fontFamily=Helvetica;html=1;rounded=0;shadow=0;comic=0;labelBackgroundColor=none;strokeWidth=1;">
      <mxGeometry x="234" y="222" width="156" height="107" as="geometry" />
    </mxCell>
    <mxCell id="node0" parent="1" vertex="1" value="&lt;p style=&quot;margin:0px;margin-top:4px;text-align:center;&quot;&gt;&lt;b&gt;Word&lt;/b&gt;&lt;/p&gt;&lt;hr size=&quot;1&quot;/&gt;&lt;p style=&quot;margin:0 0 0 4px;line-height:1.6;&quot;&gt;+ Word(): &lt;/p&gt;&lt;hr size=&quot;1&quot;/&gt;&lt;p style=&quot;margin:0 0 0 4px;line-height:1.6;&quot;&gt;- polish: String&lt;br/&gt;- soundFileName: String&lt;br/&gt;- english: String&lt;br/&gt;- ipa: String&lt;/p&gt;" style="verticalAlign=top;align=left;overflow=fill;fontSize=14;fontFamily=Helvetica;html=1;rounded=0;shadow=0;comic=0;labelBackgroundColor=none;strokeWidth=1;">
      <mxGeometry x="756" y="162" width="166" height="143" as="geometry" />
    </mxCell>
    <mxCell id="edge3" edge="1" value="" parent="1" source="node5" target="node8" style="html=1;rounded=1;edgeStyle=orthogonalEdgeStyle;dashed=0;startArrow=none;endArrow=block;endSize=12;strokeColor=#000082;exitX=1.000;exitY=0.500;exitDx=0;exitDy=0;entryX=1.000;entryY=0.500;entryDx=0;entryDy=0;">
      <mxGeometry width="50" height="50" relative="1" as="geometry">
        <Array as="points">
          <mxPoint x="738" y="270" />
          <mxPoint x="738" y="132" />
          <mxPoint x="748" y="132" />
          <mxPoint x="748" y="55" />
        </Array>
      </mxGeometry>
    </mxCell>
    <mxCell id="edge5" edge="1" value="" parent="1" source="node7" target="node8" style="html=1;rounded=1;edgeStyle=orthogonalEdgeStyle;dashed=0;startArrow=none;endArrow=block;endSize=12;strokeColor=#000082;exitX=0.500;exitY=0.001;exitDx=0;exitDy=0;entryX=1.000;entryY=0.500;entryDx=0;entryDy=0;">
      <mxGeometry width="50" height="50" relative="1" as="geometry">
        <Array as="points">
          <mxPoint x="1085" y="132" />
          <mxPoint x="748" y="132" />
          <mxPoint x="748" y="55" />
        </Array>
      </mxGeometry>
    </mxCell>
    <mxCell id="edge0" edge="1" value="" parent="1" source="node2" target="node8" style="html=1;rounded=1;edgeStyle=orthogonalEdgeStyle;dashed=0;startArrow=none;endArrow=block;endSize=12;strokeColor=#000082;exitX=0.516;exitY=1.000;exitDx=0;exitDy=0;entryX=1.000;entryY=0.500;entryDx=0;entryDy=0;">
      <mxGeometry width="50" height="50" relative="1" as="geometry">
        <Array as="points">
          <mxPoint x="191" y="339" />
          <mxPoint x="964" y="339" />
          <mxPoint x="964" y="132" />
          <mxPoint x="748" y="132" />
          <mxPoint x="748" y="55" />
        </Array>
      </mxGeometry>
    </mxCell>
    <mxCell id="edge4" edge="1" value="" parent="1" source="node6" target="node8" style="html=1;rounded=1;edgeStyle=orthogonalEdgeStyle;dashed=0;startArrow=none;endArrow=block;endSize=12;strokeColor=#000082;exitX=0.500;exitY=1.000;exitDx=0;exitDy=0;entryX=1.000;entryY=0.500;entryDx=0;entryDy=0;">
      <mxGeometry width="50" height="50" relative="1" as="geometry">
        <Array as="points">
          <mxPoint x="874" y="132" />
          <mxPoint x="748" y="132" />
          <mxPoint x="748" y="55" />
        </Array>
      </mxGeometry>
    </mxCell>
    <mxCell id="edge12" edge="1" value="" parent="1" source="node6" target="node10" style="html=1;rounded=1;edgeStyle=orthogonalEdgeStyle;dashed=0;startArrow=diamondThinstartSize=12;endArrow=openThin;endSize=12;strokeColor=#595959;exitX=0.000;exitY=0.605;exitDx=0;exitDy=0;entryX=0.500;entryY=0.000;entryDx=0;entryDy=0;">
      <mxGeometry width="50" height="50" relative="1" as="geometry">
        <Array as="points">
          <mxPoint x="716" y="70" />
          <mxPoint x="716" y="323" />
          <mxPoint x="1009" y="323" />
        </Array>
      </mxGeometry>
    </mxCell>
    <mxCell id="label72" parent="edge12" vertex="1" connectable="0" value="1" style="edgeLabel;resizable=0;html=1;align=left;verticalAlign=top;strokeColor=default;">
      <mxGeometry x="995" y="314" as="geometry" />
    </mxCell>
    <mxCell id="label76" parent="edge12" vertex="1" connectable="0" value="*" style="edgeLabel;resizable=0;html=1;align=left;verticalAlign=top;strokeColor=default;">
      <mxGeometry x="997" y="359" as="geometry" />
    </mxCell>
    <mxCell id="label77" parent="edge12" vertex="1" connectable="0" value="listOfQuestions" style="edgeLabel;resizable=0;html=1;align=left;verticalAlign=top;strokeColor=default;">
      <mxGeometry x="1009" y="360" as="geometry" />
    </mxCell>
    <mxCell id="edge8" edge="1" value="" parent="1" source="node8" target="node10" style="html=1;rounded=1;edgeStyle=orthogonalEdgeStyle;dashed=0;startArrow=diamondThinstartSize=12;endArrow=openThin;endSize=12;strokeColor=#595959;exitX=1.000;exitY=0.898;exitDx=0;exitDy=0;entryX=0.500;entryY=0.000;entryDx=0;entryDy=0;">
      <mxGeometry width="50" height="50" relative="1" as="geometry">
        <Array as="points">
          <mxPoint x="716" y="139" />
          <mxPoint x="716" y="323" />
          <mxPoint x="1009" y="323" />
        </Array>
      </mxGeometry>
    </mxCell>
    <mxCell id="label48" parent="edge8" vertex="1" connectable="0" value="1" style="edgeLabel;resizable=0;html=1;align=left;verticalAlign=top;strokeColor=default;">
      <mxGeometry x="973" y="292" as="geometry" />
    </mxCell>
    <mxCell id="label52" parent="edge8" vertex="1" connectable="0" value="*" style="edgeLabel;resizable=0;html=1;align=left;verticalAlign=top;strokeColor=default;">
      <mxGeometry x="1000" y="370" as="geometry" />
    </mxCell>
    <mxCell id="label53" parent="edge8" vertex="1" connectable="0" value="listOfQuestions" style="edgeLabel;resizable=0;html=1;align=left;verticalAlign=top;strokeColor=default;">
      <mxGeometry x="999" y="355" as="geometry" />
    </mxCell>
    <mxCell id="edge13" edge="1" value="" parent="1" source="node9" target="node8" style="html=1;rounded=1;edgeStyle=orthogonalEdgeStyle;dashed=0;startArrow=diamondThinstartSize=12;endArrow=openThin;endSize=12;strokeColor=#595959;exitX=0.000;exitY=0.764;exitDx=0;exitDy=0;entryX=0.500;entryY=1.000;entryDx=0;entryDy=0;">
      <mxGeometry width="50" height="50" relative="1" as="geometry">
        <Array as="points">
          <mxPoint x="-133" y="499" />
          <mxPoint x="-133" y="191" />
          <mxPoint x="539" y="191" />
        </Array>
      </mxGeometry>
    </mxCell>
    <mxCell id="label78" parent="edge13" vertex="1" connectable="0" value="1" style="edgeLabel;resizable=0;html=1;align=left;verticalAlign=top;strokeColor=default;">
      <mxGeometry x="528" y="182" as="geometry" />
    </mxCell>
    <mxCell id="label82" parent="edge13" vertex="1" connectable="0" value="*" style="edgeLabel;resizable=0;html=1;align=left;verticalAlign=top;strokeColor=default;">
      <mxGeometry x="530" y="169" as="geometry" />
    </mxCell>
    <mxCell id="label83" parent="edge13" vertex="1" connectable="0" value="exercisesList" style="edgeLabel;resizable=0;html=1;align=left;verticalAlign=top;strokeColor=default;">
      <mxGeometry x="539" y="167" as="geometry" />
    </mxCell>
    <mxCell id="edge6" edge="1" value="" parent="1" source="node10" target="node6" style="html=1;rounded=1;edgeStyle=orthogonalEdgeStyle;dashed=0;startArrow=circlePlus;startFill=0;endArrow=none;strokeColor=#820000;exitX=1.000;exitY=0.500;exitDx=0;exitDy=0;entryX=1.000;entryY=0.500;entryDx=0;entryDy=0;">
      <mxGeometry width="50" height="50" relative="1" as="geometry">
        <Array as="points">
          <mxPoint x="1206" y="432" />
          <mxPoint x="1206" y="62" />
        </Array>
      </mxGeometry>
    </mxCell>
    <mxCell id="edge10" edge="1" value="" parent="1" source="node10" target="node0" style="html=1;rounded=1;edgeStyle=orthogonalEdgeStyle;dashed=0;startArrow=diamondThinstartSize=12;endArrow=openThin;endSize=12;strokeColor=#595959;exitX=0.032;exitY=0.000;exitDx=0;exitDy=0;entryX=0.876;entryY=1.000;entryDx=0;entryDy=0;">
      <mxGeometry width="50" height="50" relative="1" as="geometry">
        <Array as="points" />
      </mxGeometry>
    </mxCell>
    <mxCell id="label60" parent="edge10" vertex="1" connectable="0" value="1" style="edgeLabel;resizable=0;html=1;align=left;verticalAlign=top;strokeColor=default;">
      <mxGeometry x="890" y="354" as="geometry" />
    </mxCell>
    <mxCell id="label64" parent="edge10" vertex="1" connectable="0" value="*" style="edgeLabel;resizable=0;html=1;align=left;verticalAlign=top;strokeColor=default;">
      <mxGeometry x="887" y="310" as="geometry" />
    </mxCell>
    <mxCell id="label65" parent="edge10" vertex="1" connectable="0" value="wordsToChooseFrom" style="edgeLabel;resizable=0;html=1;align=left;verticalAlign=top;strokeColor=default;">
      <mxGeometry x="901" y="310" as="geometry" />
    </mxCell>
    <mxCell id="edge14" edge="1" value="" parent="1" source="node4" target="node8" style="html=1;rounded=1;edgeStyle=orthogonalEdgeStyle;dashed=0;startArrow=diamondThinstartSize=12;endArrow=openThin;endSize=12;strokeColor=#595959;exitX=0.659;exitY=0.000;exitDx=0;exitDy=0;entryX=0.500;entryY=1.000;entryDx=0;entryDy=0;">
      <mxGeometry width="50" height="50" relative="1" as="geometry">
        <Array as="points">
          <mxPoint x="407" y="191" />
          <mxPoint x="539" y="191" />
        </Array>
      </mxGeometry>
    </mxCell>
    <mxCell id="label84" parent="edge14" vertex="1" connectable="0" value="1" style="edgeLabel;resizable=0;html=1;align=left;verticalAlign=top;strokeColor=default;">
      <mxGeometry x="525" y="182" as="geometry" />
    </mxCell>
    <mxCell id="label88" parent="edge14" vertex="1" connectable="0" value="*" style="edgeLabel;resizable=0;html=1;align=left;verticalAlign=top;strokeColor=default;">
      <mxGeometry x="530" y="165" as="geometry" />
    </mxCell>
    <mxCell id="label89" parent="edge14" vertex="1" connectable="0" value="listOfExercisesCreated" style="edgeLabel;resizable=0;html=1;align=left;verticalAlign=top;strokeColor=default;">
      <mxGeometry x="536" y="151" as="geometry" />
    </mxCell>
    <mxCell id="edge11" edge="1" value="" parent="1" source="node4" target="node9" style="html=1;rounded=1;edgeStyle=orthogonalEdgeStyle;dashed=0;startArrow=diamondThinstartSize=12;endArrow=openThin;endSize=12;strokeColor=#595959;exitX=0.871;exitY=0.000;exitDx=0;exitDy=0;entryX=0.000;entryY=0.500;entryDx=0;entryDy=0;">
      <mxGeometry width="50" height="50" relative="1" as="geometry">
        <Array as="points">
          <mxPoint x="460" y="362" />
          <mxPoint x="509" y="362" />
          <mxPoint x="509" y="455" />
        </Array>
      </mxGeometry>
    </mxCell>
    <mxCell id="label66" parent="edge11" vertex="1" connectable="0" value="1" style="edgeLabel;resizable=0;html=1;align=left;verticalAlign=top;strokeColor=default;">
      <mxGeometry x="507" y="455" as="geometry" />
    </mxCell>
    <mxCell id="label70" parent="edge11" vertex="1" connectable="0" value="*" style="edgeLabel;resizable=0;html=1;align=left;verticalAlign=top;strokeColor=default;">
      <mxGeometry x="537" y="455" as="geometry" />
    </mxCell>
    <mxCell id="label71" parent="edge11" vertex="1" connectable="0" value="listOfLessonsCreated" style="edgeLabel;resizable=0;html=1;align=left;verticalAlign=top;strokeColor=default;">
      <mxGeometry x="417" y="398" as="geometry" />
    </mxCell>
    <mxCell id="edge2" edge="1" value="" parent="1" source="node4" target="node1" style="html=1;rounded=1;edgeStyle=orthogonalEdgeStyle;dashed=0;startArrow=none;endArrow=block;endSize=12;strokeColor=#000082;exitX=0.500;exitY=0.000;exitDx=0;exitDy=0;entryX=0.500;entryY=1.000;entryDx=0;entryDy=0;">
      <mxGeometry width="50" height="50" relative="1" as="geometry">
        <Array as="points">
          <mxPoint x="368" y="361" />
          <mxPoint x="312" y="361" />
        </Array>
      </mxGeometry>
    </mxCell>
    <mxCell id="edge9" edge="1" value="" parent="1" source="node3" target="node8" style="html=1;rounded=1;edgeStyle=orthogonalEdgeStyle;dashed=0;startArrow=diamondThinstartSize=12;endArrow=openThin;endSize=12;strokeColor=#595959;exitX=0.500;exitY=0.000;exitDx=0;exitDy=0;entryX=0.500;entryY=1.000;entryDx=0;entryDy=0;">
      <mxGeometry width="50" height="50" relative="1" as="geometry">
        <Array as="points">
          <mxPoint x="29" y="191" />
          <mxPoint x="539" y="191" />
        </Array>
      </mxGeometry>
    </mxCell>
    <mxCell id="label54" parent="edge9" vertex="1" connectable="0" value="1" style="edgeLabel;resizable=0;html=1;align=left;verticalAlign=top;strokeColor=default;">
      <mxGeometry x="508" y="182" as="geometry" />
    </mxCell>
    <mxCell id="label58" parent="edge9" vertex="1" connectable="0" value="*" style="edgeLabel;resizable=0;html=1;align=left;verticalAlign=top;strokeColor=default;">
      <mxGeometry x="530" y="165" as="geometry" />
    </mxCell>
    <mxCell id="label59" parent="edge9" vertex="1" connectable="0" value="listOfTestsDone" style="edgeLabel;resizable=0;html=1;align=left;verticalAlign=top;strokeColor=default;">
      <mxGeometry x="522" y="165" as="geometry" />
    </mxCell>
    <mxCell id="edge7" edge="1" value="" parent="1" source="node3" target="node9" style="html=1;rounded=1;edgeStyle=orthogonalEdgeStyle;dashed=0;startArrow=diamondThinstartSize=12;endArrow=openThin;endSize=12;strokeColor=#595959;exitX=0.500;exitY=1.000;exitDx=0;exitDy=0;entryX=0.000;entryY=0.500;entryDx=0;entryDy=0;">
      <mxGeometry width="50" height="50" relative="1" as="geometry">
        <Array as="points">
          <mxPoint x="29" y="555" />
          <mxPoint x="509" y="555" />
          <mxPoint x="509" y="455" />
        </Array>
      </mxGeometry>
    </mxCell>
    <mxCell id="label42" parent="edge7" vertex="1" connectable="0" value="1" style="edgeLabel;resizable=0;html=1;align=left;verticalAlign=top;strokeColor=default;">
      <mxGeometry x="504" y="495" as="geometry" />
    </mxCell>
    <mxCell id="label46" parent="edge7" vertex="1" connectable="0" value="*" style="edgeLabel;resizable=0;html=1;align=left;verticalAlign=top;strokeColor=default;">
      <mxGeometry x="538" y="494" as="geometry" />
    </mxCell>
    <mxCell id="label47" parent="edge7" vertex="1" connectable="0" value="listOfLessonsDone" style="edgeLabel;resizable=0;html=1;align=left;verticalAlign=top;strokeColor=default;">
      <mxGeometry x="475" y="398" as="geometry" />
    </mxCell>
    <mxCell id="edge1" edge="1" value="" parent="1" source="node3" target="node1" style="html=1;rounded=1;edgeStyle=orthogonalEdgeStyle;dashed=0;startArrow=none;endArrow=block;endSize=12;strokeColor=#000082;exitX=1.000;exitY=0.753;exitDx=0;exitDy=0;entryX=0.500;entryY=1.000;entryDx=0;entryDy=0;">
      <mxGeometry width="50" height="50" relative="1" as="geometry">
        <Array as="points">
          <mxPoint x="226" y="390" />
          <mxPoint x="226" y="361" />
          <mxPoint x="312" y="361" />
        </Array>
      </mxGeometry>
    </mxCell>
  </root>
</mxGraphModel>